<svg xmlns="http://www.w3.org/2000/svg" enable-background="new 0 0 24 24" viewBox="0 0 24 24" id="statamic"><path d="M17.756,20.25h-0.482c-0.414,0-0.75-0.336-0.75-0.75s0.336-0.75,0.75-0.75h0.482c0.264,0,0.34-0.045,0.344-0.047l0,0c-0.003,0,0.064-0.105,0.064-0.545v-3.789c0-1.156,0.196-1.919,0.67-2.428c-0.482-0.517-0.687-1.291-0.687-2.44V5.729c0-0.306-0.033-0.423-0.047-0.458C18.09,5.277,17.985,5.25,17.732,5.25H17.25c-0.414,0-0.75-0.336-0.75-0.75s0.336-0.75,0.75-0.75h0.482c1.325,0,1.916,0.61,1.916,1.979v3.772c0,1.447,0.306,1.537,0.814,1.687C20.781,11.282,21,11.574,21,11.907s-0.219,0.701-0.539,0.795c-0.513,0.15-0.796,0.233-0.796,1.667v3.789C19.665,18.676,19.665,20.25,17.756,20.25z"></path><path d="M21.518 18.217h-.263c-.414 0-.75-.336-.75-.75s.336-.75.75-.75h.263c.006 0 .012 0 .018 0 .006-.051.011-.123.011-.227v-2.78c0-.767.078-1.354.375-1.778-.298-.428-.375-1.02-.375-1.791V7.382c0-.068-.002-.122-.005-.164-.011.001-.021.001-.031.001h-.26c-.414 0-.75-.336-.75-.75s.336-.75.75-.75h.218c1.069-.023 1.579.54 1.579 1.663v2.759c0 .939.044.95.39 1.039C23.768 11.265 24 11.563 24 11.906s-.232.697-.565.781c-.352.09-.389.1-.389 1.022v2.78C23.046 17.917 22.215 18.217 21.518 18.217zM6.727 20.25H6.244c-1.909 0-1.909-1.574-1.909-2.092v-3.789c0-1.434-.283-1.517-.796-1.667C3.219 12.608 3 12.315 3 11.982s.219-.7.538-.795c.508-.149.814-.239.814-1.687V5.729c0-1.368.591-1.979 1.916-1.979H6.75c.414 0 .75.336.75.75S7.164 5.25 6.75 5.25H6.268c-.261 0-.364.03-.392.041.011.007-.024.122-.024.438v3.772c0 1.149-.205 1.924-.687 2.44.475.509.67 1.271.67 2.428v3.789c0 .433.065.542.072.553-.003-.012.063.039.336.039h.482c.414 0 .75.336.75.75S7.141 20.25 6.727 20.25z"></path><path d="M2.745,18.217H2.482c-0.697,0-1.528-0.3-1.528-1.727v-2.78c0-0.923-0.037-0.933-0.389-1.022C0.232,12.604,0,12.304,0,11.961s0.232-0.696,0.564-0.781c0.345-0.089,0.39-0.1,0.39-1.039V7.382c0-1.124,0.549-1.701,1.583-1.663H2.75c0.414,0,0.75,0.336,0.75,0.75s-0.336,0.75-0.75,0.75H2.49c-0.01,0-0.021,0-0.031-0.001C2.456,7.26,2.454,7.313,2.454,7.382v2.759c0,0.771-0.077,1.363-0.375,1.791c0.298,0.425,0.375,1.012,0.375,1.778v2.78c0,0.104,0.005,0.176,0.011,0.227c0.005,0,0.011,0,0.018,0h0.263c0.414,0,0.75,0.336,0.75,0.75S3.159,18.217,2.745,18.217z"></path><g><path d="M11.999,16.967c-0.726,0-2.634-0.329-3.542-0.934c-0.345-0.229-0.438-0.694-0.209-1.039c0.23-0.347,0.696-0.438,1.04-0.209c0.561,0.373,2.141,0.682,2.71,0.682c2.053,0,2.407-0.636,2.483-1.257c0.08-0.653-0.786-0.976-2.643-1.509c-0.231-0.066-0.428-0.116-0.63-0.168c-1.282-0.326-3.22-0.82-3.22-2.691c0-2.122,2.16-2.875,4.01-2.875c0.677,0,2.38,0.1,3.581,1.018c0.329,0.252,0.392,0.723,0.14,1.052c-0.251,0.328-0.724,0.392-1.051,0.14c-0.684-0.522-1.827-0.709-2.67-0.709c-0.257,0-2.51,0.039-2.51,1.375c0,0.604,0.645,0.87,2.09,1.238c0.216,0.055,0.428,0.108,0.626,0.166c1.904,0.547,4.009,1.151,3.765,3.146C15.763,16.101,14.426,16.967,11.999,16.967z"></path></g></svg>